<svg width="190" height="37" viewBox="0 0 190 37" fill="none" xmlns="http://www.w3.org/2000/svg">
<path d="M12.4888 3.37621H10.7227C8.05211 3.37621 5.46782 5.13771 5.46782 10.2507C5.46782 15.1916 7.83641 16.7816 10.7227 16.7816H12.4888V3.37621ZM9.73194 19.5314L4.47691 31.3037H0.642799L6.41551 18.7145C3.70112 17.3396 1.89193 14.848 1.89193 10.2507C1.89193 3.80585 5.98411 0.583364 10.8521 0.583364H15.8058V31.3037H12.4888V19.5314H9.73194Z" fill="#FF0000"/>
<path d="M80.2524 20.4766C80.2524 13.6875 82.8808 9.34833 87.9639 9.34833C89.9018 9.34833 91.0219 9.86401 91.9697 10.4651L91.4958 13.6451C90.5912 12.8714 89.2989 12.1413 87.9204 12.1413C85.508 12.1413 83.7854 14.8479 83.7854 20.3045C83.7854 25.718 85.0773 28.812 87.7911 28.812C89.4279 28.812 90.6774 28.1673 91.4527 27.4801L92.228 29.9719C91.0651 30.9595 89.6866 31.6042 87.7049 31.6042C83.0525 31.6042 80.2524 27.8668 80.2524 20.4766ZM70.4314 20.519V31.3037H67.0712V9.64887H70.4314V19.6597L75.6435 9.64887H79.0467L73.6622 19.8318L79.8217 31.3037H76.1605L70.4314 20.519ZM54.6221 18.5H60.1792C60.1792 14.805 59.576 12.0981 57.6378 12.0981C55.5699 12.0981 54.8377 14.6328 54.6221 18.5ZM58.3268 31.6042C53.8469 31.6042 51.0903 28.0388 51.0903 21.3795C51.0903 14.4184 53.0288 9.34833 57.6378 9.34833C61.2562 9.34833 63.6255 12.0552 63.6255 19.4016V21.2498H54.579C54.579 26.1483 55.9575 28.7259 58.6282 28.7259C60.5237 28.7259 62.0315 27.8668 62.893 27.2657L63.6687 29.8421C62.2902 30.9171 60.4806 31.6042 58.3268 31.6042ZM44.0254 12.3557H40.2776V12.7429C40.2776 17.2972 40.0624 23.9559 38.2532 28.5539H44.0254V12.3557ZM49.0651 35.5574H46.0502V31.3037H36.7454V35.5574H33.7305V28.5539H35.0659C37.0468 23.9559 37.2624 17.2542 37.2624 11.4964V9.64887H47.3425V28.5539H49.0651V35.5574ZM31.7919 9.64887V31.3037H28.4748V21.594H23.478V31.3037H20.1179V9.64887H23.478V18.8429H28.4748V9.64887H31.7919Z" fill="white"/>
<path d="M112.794 2.34486H106.117C105.988 10.1216 105.772 16.0507 105.428 20.4765C105.04 25.0733 104.35 28.1236 103.188 29.5428H112.794V2.34486ZM115.077 31.3036H101.896L101.594 36.4166H99.914V29.5428H100.819C102.326 28.2956 103.058 24.8587 103.489 20.4765C103.92 15.9223 104.049 9.13319 104.179 0.583291H114.948V29.5428H117.059V36.4166H115.378L115.077 31.3036Z" fill="white"/>
<path d="M121.24 19.2295H129.124C129.468 13.4731 127.746 10.8953 125.549 10.8953C123.266 10.8953 121.412 13.8166 121.24 19.2295ZM125.979 29.9718C128.864 29.9718 130.372 27.6523 130.372 27.6523L131.019 29.2833C131.019 29.2833 129.382 31.7325 125.936 31.7325C121.328 31.7325 119.216 27.5648 119.216 20.4765C119.216 13.387 121.886 9.21928 125.549 9.21928C129.296 9.21928 131.707 13.1295 131.019 20.8209H121.198C121.284 26.7493 122.834 29.9718 125.979 29.9718Z" fill="white"/>
<path d="M144.289 20.8632H136.88V31.3037H134.856V9.64891H136.88V19.2296H144.289V9.64891H146.313V31.3037H144.289V20.8632Z" fill="white"/>
<path d="M153.123 19.2732V29.7136H154.416C157.474 29.7136 159.542 28.211 159.542 24.4723C159.542 20.821 157.733 19.2732 154.631 19.2732H153.123ZM151.1 9.64891H153.123V17.6839H154.718C158.853 17.6839 161.524 19.918 161.524 24.4299C161.524 29.0265 158.681 31.3037 154.588 31.3037H151.1V9.64891Z" fill="white"/>
<path d="M166.996 11.325V31.3037H165.016V9.64891H174.191V11.325H166.996Z" fill="white"/>
<path d="M187.419 16.2229C187.419 15.1055 187.504 14.1603 187.591 13.2579H187.461C187.16 14.2033 186.773 15.1055 186.299 16.0508L179.235 31.3037H177.512V9.64891H179.407V24.6867C179.407 25.8464 179.319 26.7918 179.235 27.737H179.363C179.665 26.7494 180.095 25.8042 180.526 24.8588L187.591 9.64891H189.357V31.3037H187.419V16.2229Z" fill="white"/>
</svg>
